# xmcd
#
# Track frame offsets: 
#        150
#        20331
#        36038
#        56617
#        79138
#        98935
#        111524
#        123733
#        147267
#
# Disc length: 2224 seconds
#
# Revision: 2
# Processed by: cddbd v1.5PL3 Copyright (c) Steve Scherf et al.
# Submitted via: ExactAudioCopy v0.95a3
#
DISCID=7b08ae09
DTITLE=Rudy Rotta - SLoner And Goner
DYEAR=2002
DGENRE=Blues
TTITLE0=(Feel Just Like A) Drifting Mine
TTITLE1=More And More
TTITLE2=What Have You Done?
TTITLE3=We're Gonna Roll
TTITLE4=Loner And Goner
TTITLE5=Town To Town
TTITLE6=You'better Watch Yourself
TTITLE7=Mama Save The Children
TTITLE8=Touch
EXTD=
EXTT0=
EXTT1=
EXTT2=
EXTT3=
EXTT4=
EXTT5=
EXTT6=
EXTT7=
EXTT8=
PLAYORDER=
